<svg width="22" height="21" viewBox="0 0 22 21" fill="none" xmlns="http://www.w3.org/2000/svg">
<g id="Group">
<path id="Vector" d="M5.21349 20.2387V6.75683H0.736312V20.2387H5.21396H5.21349ZM2.97584 4.91643C4.5368 4.91643 5.5086 3.88118 5.5086 2.58741C5.47938 1.26417 4.5368 0.257812 3.00552 0.257812C1.4732 0.257812 0.472412 1.26417 0.472412 2.5873C0.472412 3.88106 1.44386 4.91631 2.9465 4.91631H2.97549L2.97584 4.91643ZM7.69167 20.2387H12.1685V12.7106C12.1685 12.3082 12.1977 11.9048 12.316 11.6173C12.6395 10.812 13.3762 9.97826 14.6133 9.97826C16.2329 9.97826 16.8812 11.2145 16.8812 13.027V20.2387H21.3579V12.5086C21.3579 8.36772 19.1495 6.44076 16.2039 6.44076C13.789 6.44076 12.7283 7.79173 12.1391 8.71187H12.1689V6.7573H7.69191C7.75034 8.02205 7.69156 20.2391 7.69156 20.2391L7.69167 20.2387Z" fill="white"/>
</g>
</svg>
